<?xml version="1.0" encoding="iso-8859-1"?>
<!-- Generator: Adobe Illustrator 17.1.0, SVG Export Plug-In . SVG Version: 6.00 Build 0)  -->
<!DOCTYPE svg PUBLIC "-//W3C//DTD SVG 1.1//EN" "http://www.w3.org/Graphics/SVG/1.1/DTD/svg11.dtd">
<svg version="1.1" id="Capa_1" xmlns="http://www.w3.org/2000/svg" xmlns:xlink="http://www.w3.org/1999/xlink" x="0px" y="0px"
	 viewBox="0 0 625.022 625.022" style="enable-background:new 0 0 625.022 625.022;" xml:space="preserve">
<g>
	<path fill="#B7B8A4" d="M320.643,229.004c0-29.171-23.732-52.903-52.903-52.903c-29.165,0-52.892,23.732-52.892,52.903
		c0,29.172,23.727,52.904,52.892,52.904C296.911,281.908,320.643,258.176,320.643,229.004z"/>
	<path fill="#B7B8A4" d="M487.937,142.876c-0.672-4.509-3.047-8.477-6.688-11.174L307.931,3.328C304.992,1.151,301.499,0,297.829,0
		c-5.396,0-10.521,2.57-13.709,6.876l-51.5,69.529c-5.587,7.543-3.995,18.226,3.548,23.812l118.725,87.937
		c-0.395,1.299-0.688,2.643-0.854,4.033l-6.477,54.258c-0.216,0.838-1.082,2.675-1.592,3.376l-43.134,45.174h-70.178l-43.075-45.11
		c-0.43-0.632-1.093-2.098-1.284-2.838l-4.766-54.139c-1.053-11.954-11.252-21.318-23.219-21.318c-0.698,0-1.407,0.031-2.104,0.094
		c-6.216,0.547-11.848,3.482-15.856,8.266c-4.009,4.782-5.915,10.84-5.368,17.057l4.797,54.499
		c0.914,10.369,6.571,22.866,13.759,30.391c0,0,48.965,51.226,49.485,51.684v265.71c0,14.189,11.545,25.734,25.734,25.734
		c14.189,0,25.734-11.545,25.734-25.734V466.27h22.5v133.019c0,14.189,11.545,25.734,25.734,25.734
		c14.19,0,25.734-11.545,25.734-25.734V333.579c0.521-0.458,49.485-51.684,49.485-51.684c7.023-7.355,12.771-19.545,13.976-29.644
		l3.858-32.329l11.702,8.667c2.939,2.177,6.433,3.328,10.103,3.328c5.396,0,10.521-2.57,13.709-6.876l51.5-69.528
		C487.494,151.873,488.609,147.385,487.937,142.876z M343.121,146.086c-0.094-0.04-0.521-0.284-0.916,0.248l-4.219,5.696
		c-1.154,1.558-3.393,1.861-4.99,0.678l-2.586-1.915c-1.598-1.184-1.957-3.413-0.805-4.97l4.01-5.414
		c0.295-0.398-0.029-0.88-0.105-0.955c-0.283-0.288-6.645-6.759-8.932-11.455c-0.572-1.175-0.492-2.809,0.978-3.805l4-2.619
		c1.203-0.782,2.725-0.735,3.879,0.12c0.422,0.313,0.764,0.711,1.014,1.181c0.041,0.074,4,7.403,8.478,10.719
		c5.244,3.885,10.986,3.784,13.969-0.242c2.74-3.7,2.025-8.138-2.469-15.317c-5.695-8.885-10.064-18.334-3.486-27.217
		c5.277-7.125,14.281-9.203,23.352-5.328c0.191,0.083,0.777,0.236,1.086-0.181l4.021-5.441c1.154-1.559,3.393-1.861,4.986-0.682
		l2.504,1.854c1.596,1.183,1.957,3.412,0.803,4.971l-3.809,5.186c-0.297,0.4-0.01,0.726,0.076,0.817
		c0.055,0.057,5.383,5.634,7.5,9.308c0.639,1.102,0.537,2.779-0.91,3.719l-4.035,2.531c-1.178,0.74-2.66,0.686-3.77-0.138
		c-0.455-0.336-0.828-0.793-1.078-1.316c-0.02-0.044-2.43-4.929-7.506-8.688c-5.738-4.251-10.1-2.619-12.092,0.067
		c-2.486,3.359-1.647,6.861,3.746,15.62c7.135,11.451,7.729,19.647,1.986,27.399C362.215,148.063,352.701,150.323,343.121,146.086z"
		/>
</g>
</svg>
